<svg xmlns="http://www.w3.org/2000/svg" width="28.715" height="18.001" viewBox="0 0 28.715 18.001">
  <path id="behance-brands" d="M11.566,83.466a3.783,3.783,0,0,0,2.413-3.689c0-3.52-2.622-4.377-5.648-4.377H0V93.067H8.565c3.21,0,6.226-1.54,6.226-5.13A4.257,4.257,0,0,0,11.566,83.466Zm-7.682-5.05H7.528c1.4,0,2.662.394,2.662,2.019,0,1.5-.982,2.1-2.368,2.1H3.883V78.416Zm4.153,11.65H3.883V85.2H8.116c1.71,0,2.792.713,2.792,2.523C10.908,89.508,9.616,90.066,8.036,90.066Zm17.872-12H18.744v-1.74h7.164Zm2.807,8.789c0-3.784-2.213-6.939-6.226-6.939a6.429,6.429,0,0,0-6.546,6.77c0,3.983,2.508,6.715,6.546,6.715a5.7,5.7,0,0,0,5.987-4.3h-3.1a2.911,2.911,0,0,1-2.777,1.67c-2.059,0-3.141-1.206-3.141-3.255h9.228C28.7,87.3,28.715,87.08,28.715,86.856ZM19.462,85.3a2.746,2.746,0,0,1,2.916-2.732,2.619,2.619,0,0,1,2.8,2.732Z" transform="translate(0 -75.4)" fill="#44434c"/>
</svg>
