<svg xmlns="http://www.w3.org/2000/svg" width="18.002" height="18.002" viewBox="0 0 18.002 18.002">
  <path id="dribbble-brands" d="M17,8a9,9,0,1,0,9,9A9.011,9.011,0,0,0,17,8Zm5.951,4.151a7.651,7.651,0,0,1,1.736,4.789,17.966,17.966,0,0,0-5.353-.247c-.209-.51-.406-.958-.676-1.51a10.241,10.241,0,0,0,4.293-3.031Zm-.855-.889a8.68,8.68,0,0,1-4.029,2.777,41.037,41.037,0,0,0-2.869-4.5A7.668,7.668,0,0,1,22.1,11.262Zm-8.365-1.207a49.055,49.055,0,0,1,2.85,4.446,28.676,28.676,0,0,1-7.107.937A7.716,7.716,0,0,1,13.732,10.055ZM9.313,17.012c0-.079,0-.157,0-.235a28.359,28.359,0,0,0,7.9-1.094c.22.431.43.868.623,1.3a11.908,11.908,0,0,0-6.552,5.165A7.657,7.657,0,0,1,9.313,17.012Zm2.969,6.065a10.813,10.813,0,0,1,6.082-4.818A31.957,31.957,0,0,1,20,24.09a7.672,7.672,0,0,1-7.722-1.012Zm9.015.308A33.182,33.182,0,0,0,19.8,17.9a11.284,11.284,0,0,1,4.789.329A7.7,7.7,0,0,1,21.3,23.386Z" transform="translate(-8 -8)" fill="#44434c"/>
</svg>
