<svg xmlns="http://www.w3.org/2000/svg" width="18.135" height="17.682" viewBox="0 0 18.135 17.682">
  <path id="github-brands" d="M6.066,22.237c0,.073-.084.132-.19.132s-.2-.048-.2-.132.084-.132.19-.132S6.066,22.153,6.066,22.237Zm-1.137-.165c-.026.073.048.157.157.179a.172.172,0,0,0,.227-.073c.022-.073-.048-.157-.157-.19A.188.188,0,0,0,4.929,22.073Zm1.616-.062c-.106.026-.179.1-.168.179s.106.121.216.1.179-.1.168-.168S6.651,22,6.545,22.011ZM8.951,8A8.767,8.767,0,0,0,0,16.921a9.167,9.167,0,0,0,6.2,8.746c.468.084.633-.2.633-.442s-.011-1.477-.011-2.245c0,0-2.559.548-3.1-1.09,0,0-.417-1.064-1.016-1.338,0,0-.837-.574.059-.563a1.93,1.93,0,0,1,1.411.943,1.933,1.933,0,0,0,2.665.764,2.032,2.032,0,0,1,.585-1.232c-2.044-.227-4.106-.523-4.106-4.04a2.771,2.771,0,0,1,.863-2.154,3.454,3.454,0,0,1,.1-2.483c.764-.238,2.523.987,2.523.987a8.638,8.638,0,0,1,4.592,0s1.759-1.229,2.523-.987a3.453,3.453,0,0,1,.1,2.483,2.842,2.842,0,0,1,.943,2.154c0,3.528-2.154,3.81-4.2,4.04a2.162,2.162,0,0,1,.622,1.7c0,1.232-.011,2.757-.011,3.057,0,.238.168.527.633.442a9.082,9.082,0,0,0,6.135-8.738A8.965,8.965,0,0,0,8.951,8Zm-5.4,12.61c-.048.037-.037.121.026.19s.143.084.19.037.037-.121-.026-.19S3.6,20.563,3.554,20.61Zm-.395-.3c-.026.048.011.106.084.143a.109.109,0,0,0,.157-.026c.026-.048-.011-.106-.084-.143S3.185,20.278,3.159,20.314Zm1.185,1.3c-.058.048-.037.157.048.227s.19.1.238.037.026-.157-.048-.227S4.391,21.557,4.344,21.616Zm-.417-.537c-.059.037-.059.132,0,.216s.157.121.2.084a.167.167,0,0,0,0-.227c-.051-.084-.146-.121-.2-.073Z" transform="translate(0 -8)" fill="#44434c"/>
</svg>
